<svg id="Calque_1" data-name="Calque 1" xmlns="http://www.w3.org/2000/svg" viewBox="0 0 54.06 60.51"><defs><style>.cls-1,.cls-2{fill:#5692ce;}.cls-2{fill-rule:evenodd;}</style></defs><title>ocha vertical</title><path class="cls-1" d="M8.29,46.93a4.53,4.53,0,0,1,4.64-4.67,4.67,4.67,0,0,1,0,9.34,4.53,4.53,0,0,1-4.64-4.67m8,0a3.36,3.36,0,1,0-3.35,3.54,3.35,3.35,0,0,0,3.35-3.54"/><path class="cls-1" d="M25.48,44.41a2.76,2.76,0,0,0-2.15-1A3.36,3.36,0,0,0,20,47a3.26,3.26,0,0,0,3.31,3.46,2.72,2.72,0,0,0,2.32-1.19l1,.76a4.11,4.11,0,0,1-3.36,1.56A4.57,4.57,0,0,1,18.74,47a4.5,4.5,0,0,1,4.63-4.75,3.86,3.86,0,0,1,3.11,1.39Z"/><polygon class="cls-1" points="28.13 42.49 29.33 42.49 29.33 46.18 33.94 46.18 33.94 42.49 35.14 42.49 35.14 51.38 33.94 51.38 33.94 47.31 29.33 47.31 29.33 51.38 28.13 51.38 28.13 42.49"/><path class="cls-1" d="M40.21,42.49H41.3l3.81,8.89H43.7l-.89-2.2H38.58l-.88,2.2H36.3Zm2.16,5.64-1.66-4.08h0L39,48.13Z"/><path class="cls-2" d="M28.91,23.91a.22.22,0,0,0-.25.05l-.2.15s-.05.08,0,.12.16-.05.16-.05l.19-.11.12-.06s.13,0,0-.1M34,21.36a6.65,6.65,0,0,1-.11,1c0,.11.25.26.27.37s-.19.28-.27.17a.31.31,0,0,0-.1-.1A7.27,7.27,0,0,1,32.07,26l.59.59a.33.33,0,0,0,0-.17c0-.21,0-.28.08-.28a.4.4,0,0,1,.39.27c0,.09,0,0,.1.15a.54.54,0,0,0,0,.26,1.12,1.12,0,0,1,0,.15s0,.09,0,.18a8.87,8.87,0,0,0,2.42-5.74Zm-2.19,7a9.11,9.11,0,0,0,1-.77l0-.05a.17.17,0,0,1-.15,0,.51.51,0,0,1-.09-.21l-.89-.89a1.49,1.49,0,0,1-.19.19v.22c.57.27.7.5.69.63s-.4.45-.4.55.15.19.14.29a.64.64,0,0,1,0,.07m-4.8,0v1.53a10.29,10.29,0,0,0,1.36-.15,1.72,1.72,0,0,0-.42-.25.84.84,0,0,1-.28-.45c-.09-.24.18-.26.11-.44s-.62-.11-.62-.11.08.11-.15-.13m-.66-.14a7.42,7.42,0,0,1-4.49-1.75l.21.19c.34.3.38.48.36.63s-.77.14-.77.14h0a1.73,1.73,0,0,1-.81.18.4.4,0,0,1-.2-.12l-.07.07a9.08,9.08,0,0,0,5.79,2.32Zm-7-6.29c0-.2,0-.41-.05-.62H17.62a8.56,8.56,0,0,0,.43,2.39h0c.07,0,0-.08,0-.17s.11,0,.14-.06,0-.09,0-.15.08-.09.09-.14,0,0-.06-.11a.88.88,0,0,1,.08-.32,2.77,2.77,0,0,1,.13-.29c.07-.16.37-.24.47-.34s.07-.21.25-.24a.26.26,0,0,1,.2.05m-.05-1.27a7.15,7.15,0,0,1,2-4.62l-1.2-1.19a8.9,8.9,0,0,0-2.47,5.81Zm2.43-5.07a7.31,7.31,0,0,1,4.6-1.86V12.11a9.12,9.12,0,0,0-5.8,2.33ZM27,13.78A7.52,7.52,0,0,1,30.74,15c-.06-.08-.1-.2-.12-.22s.09-.1.09-.1c-.19-.26-.23-.38-.16-.44s.26.11.36.28a.88.88,0,0,0,.32.34c.09,0,.27,0,.32.17s.1.2.15.43l0,.09.49-.49a.53.53,0,0,0-.27-.31l-.36.12s-.13.07-.17,0a.68.68,0,0,1-.05-.26s-.14-.09-.14-.17.08-.3,0-.39a.6.6,0,0,0-.16-.15,2.36,2.36,0,0,0-.11-.42,1.68,1.68,0,0,0-.35-.38V13A9.1,9.1,0,0,0,27,12.11Zm5.09,2.37.13.15c.13.15.26.31.38.47l.17.24a1.62,1.62,0,0,0,.18-.1c.11-.06.17,0,.21.14s-.22.13-.13.26.23,0,.26,0a.17.17,0,0,1,0,.2c0,.06-.11.08-.12.13l.07.13c.1,0,.26,0,.26.11s.14.3.16.45a.42.42,0,0,1-.07.24c.06.18.12.36.17.55a.2.2,0,0,1,.16,0v0a1.49,1.49,0,0,1,0,.25,1.7,1.7,0,0,1,0,.28c0,.09,0,.18,0,.27a1.91,1.91,0,0,1,.07.36h0a3,3,0,0,1,0,.43h1.71a8.81,8.81,0,0,0-.73-3.2h-.08a.59.59,0,0,1-.25.09c-.11,0-.16-.14-.16-.14a8.59,8.59,0,0,0-.56-.68.39.39,0,0,0-.27-.11c-.19,0-.16-.11-.16-.11l-.4-.16L33,16.12A.31.31,0,0,0,33,16s-.35-.05-.35-.05a1,1,0,0,1-.22-.14l-.28.28s0,.05,0,.07M38.78,21a12.11,12.11,0,1,1-12.11-12A12,12,0,0,1,38.78,21M26.7,19h0a2,2,0,0,0-.43,0s.07,0,.05.09.07.37.07.37c-.16.3-.75.4-.75.4s-.06.2-.19.28a.71.71,0,0,0-.24.21,1,1,0,0,0-.08.3c0,.11,0,.16,0,.24a2.78,2.78,0,0,1-.12.38c0,.07-.14,0-.21-.05s-.1-.34-.14-.39,0,0,0,0V21a1.84,1.84,0,0,0,0,.41c.08,0,.07-.06.09-.06.21,0,.08.13.17.13s.15,0,.16-.23a.19.19,0,0,1,.23-.19c.06,0,0,.14,0,.17s.09,0,.09.13-.21.24-.24.42-.07.21-.15.22-.08-.2-.14-.1.13.28.13.28a.63.63,0,0,0,.2-.26c0-.08.12-.07.21-.13s.1-.33.09-.4.11-.05.56-.07.42.12.39.25.07,0,.07.11-.17.27-.22.39.07.13,0,.19a.44.44,0,0,0-.08.12c-.24.28-.26.11-.41.18a.67.67,0,0,1-.32,0l-.09,0a2,2,0,0,0,1.22.39A1.62,1.62,0,0,0,27,23c.05-.23.12-.61.3-.7s.41.05.51,0,.13-.14.16-.2a.57.57,0,0,0,.05-.38c-.05-.13-.14-.08-.17-.17s.18-.09.08-.22-.13-.34-.18-.38-.1,0-.16-.08,0-.15,0-.24.16-.11.14-.19-.1,0-.12-.12a.49.49,0,0,1,.06-.25s-.24,0-.27-.08a.82.82,0,0,0-.34-.37.77.77,0,0,0-.44,0,.73.73,0,0,0-.24-.27c-.16-.21-.06-.19,0-.28s.25,0,.28,0,0,0,0,0m7-4.55a9.23,9.23,0,0,1,1,1.28,1.3,1.3,0,0,1,.26.33,1,1,0,0,1,0,.12,1,1,0,0,1,.08.14l0,0a1.3,1.3,0,0,1,.25.39.71.71,0,0,1,.06.23,9.46,9.46,0,0,1,.89,3.72h1.75A11.15,11.15,0,0,0,35,13.23Zm-6.47-3a9.63,9.63,0,0,1,4,1.1l.34-.14h.05a1.09,1.09,0,0,1,.31.08c.19.06.2,0,.28,0s.1.16.19.24.08,0,.21.07a1,1,0,0,1,.33.35c.05.09.12,0,.2.4l.24.27,1.11-1.1a11.51,11.51,0,0,0-7.47-3v1.41s0,0,.08,0,.17.07.16.2v.11M20.1,14a9.69,9.69,0,0,1,6.26-2.52V9.74a11.53,11.53,0,0,0-7.48,3ZM17,20.71a9.47,9.47,0,0,1,2.66-6.27l-1.22-1.23a11.2,11.2,0,0,0-3.19,7.5Zm2.66,6.91c-.2-.21-.4-.44-.59-.67-.17-.06-.16-.11-.34-.26s-.08-.3-.17-.34,0,.06-.05.09-.12,0-.23,0a.56.56,0,0,1-.21-.2.53.53,0,0,1-.2-.38c0-.05-.16,0-.22,0s-.07-.13-.14-.17a.22.22,0,0,0-.16,0,3.13,3.13,0,0,0-.24-.34s0,.17-.16.17-.35-.32-.41-.36-.1.07-.2,0a1.12,1.12,0,0,1-.18-.45c0-.06-.08-.14-.11-.23a2.17,2.17,0,0,1,0-.63c.05-.12.09,0,.13-.18s.15-.17.23-.18a.12.12,0,0,1,.15.09c0,.07.16,0,.22,0s0-.11,0-.15.13,0,.21-.07.21-.08.24,0l0,0a8.86,8.86,0,0,1-.29-2H15.22a11.24,11.24,0,0,0,3.19,7.49Zm6.73,3a9.75,9.75,0,0,1-6.25-2.52L18.88,29.3a11.45,11.45,0,0,0,7.48,3Zm6.9-2.54a9.86,9.86,0,0,1-1.78,1.29.43.43,0,0,0,0,0,3.09,3.09,0,0,1-.46.72c-.06.12-.1,0-.24.15s-.06.2-.22.26l-.28.11a.62.62,0,0,1-.95,0c-.08-.06-.24-.08-.33-.19l-.06-.08A9.35,9.35,0,0,1,27,30.6v1.71a11.56,11.56,0,0,0,7.46-3Zm3.11-6.7a9.49,9.49,0,0,1-2.64,6.25L35,28.83a11.24,11.24,0,0,0,3.17-7.47Zm-4-.65h1c0-.28,0-.54-.09-.81a1.43,1.43,0,0,1-.15.22c-.1.11-.21.05-.32.1s0,.16,0,.24.1,0,0,.15-.16.05-.23.05-.12-.06-.21.05m-1.95-2.93c.08.1.16.19.23.29s.08,0,.2,0l.67.1c.19,0,.24.38.35.43s.08.08.09.18-.08.08-.07.15.09.15.16.08a.44.44,0,0,1,.41-.15c.33.06.22.25.35.28s.08.07.13.13,0,.13-.1.15-.07.09-.07.14-.07.13-.08.18-.07.21,0,.21.12.06.18,0,.31-.33.31-.47v0a6.64,6.64,0,0,0-.26-.79.33.33,0,0,0-.1-.14,3.54,3.54,0,0,1-.62-.42c-.07-.11,0-.14.09-.21a.35.35,0,0,0,.1-.29l-.12-.19c-.09-.1-.24-.3-.41-.54a2.91,2.91,0,0,0-.24-.27ZM27,16.13a5,5,0,0,1,2.92,1.19l1.2-1.2A6.69,6.69,0,0,0,27,14.44Zm-3.59,1.18a4.89,4.89,0,0,1,2.93-1.18V14.44a6.67,6.67,0,0,0-4.14,1.66Zm-.83.89c.11-.15.23-.3.35-.44l-1.2-1.2A6.54,6.54,0,0,0,20,20.71h.75a.35.35,0,0,1-.08-.23c0-.08,0-.38,0-.42s.09-.1.13-.16,0-.14,0-.18l.15-.18c.06-.07,0-.24.2-.32s.19,0,.3,0,.11-.16.11-.16-.05,0,0-.16.46-.2.46-.2,0-.1.23-.3a1.54,1.54,0,0,1,.35-.2m-.89,2.51c0-.08,0-.15,0-.22a.38.38,0,0,0-.19,0c-.18,0-.34.11-.33.26Zm-1.17.65H20a6.79,6.79,0,0,0,.18,1.21c.09-.05.08-.1.09-.16s.1-.05.12-.1,0-.06,0-.09-.11-.09-.13-.19.05-.19.09-.3,0-.15.05-.25,0,0,.17-.12M23,24.3a5.05,5.05,0,0,1-1.16-2.25l0,0a.16.16,0,0,0-.19-.09s0,.37,0,.39,0,.2-.12.19a.18.18,0,0,1-.12-.1s-.13,0-.15,0-.12-.17,0-.27.1.1.18,0-.1-.58,0-.59.23.21.27.22l.11,0c0-.11,0-.23,0-.34H21c0,.08,0,.35-.08.4s-.35-.05-.38.12.09.14.09.32-.09.06,0,.23.32.22.37.41a1.4,1.4,0,0,0,.14.34c0,.05-.11.15,0,.29a.85.85,0,0,1,.15.44,1.61,1.61,0,0,0,.07.65c.08.36.09.13.21.36a.68.68,0,0,1,.07.36c.07.07.13.15.21.22Zm2.59,1.51a5,5,0,0,1-2.12-1L22.23,26a6.64,6.64,0,0,0,3.35,1.57,1.34,1.34,0,0,1-.34-.2A2.4,2.4,0,0,0,25,27a.46.46,0,0,1-.15-.38.24.24,0,0,0,.16-.12,1,1,0,0,1,.25-.47,1.49,1.49,0,0,1,.31-.17m3.86-.69-.22.14h0a3.36,3.36,0,0,1,.81.24,1.06,1.06,0,0,0,.42.18l.41,0-.22-.21a1.72,1.72,0,0,1-.28-.11c-.22-.11-.17,0-.37-.07a1.9,1.9,0,0,0-.57-.14m3.78-2.6a6.24,6.24,0,0,0,.17-1.16h-1c.06.07.15.12.19.17s.07.22.09.32.1.09.27.25.15.3.22.39,0,0,.07,0M30.61,24l-.11.14,0,0c.09-.07.16,0,.22-.06a2,2,0,0,0,.12-.27.44.44,0,0,1,.35-.09c.11,0,.1,0,.16.16a.86.86,0,0,1,.05.36c.05.05-.1.2-.11.52s-.1.06-.09.28l0,0,.12.12a.15.15,0,0,0,0-.08c.08-.16.18-.25.24-.16a2.19,2.19,0,0,1,.11.4A6.48,6.48,0,0,0,33.07,23l0,0c-.07,0-.29.05-.5.08l-.4,0s-.11-.1-.16,0-.09.26-.26.22-.08-.22-.14-.24,0,.08-.06.18-.24.35-.27.41-.38.07-.42.15a.65.65,0,0,1-.2.25m-1.44-1,.48.49a.7.7,0,0,0-.06-.29l-.22-.1-.09-.06,0-.11-.05,0Zm-.3,1.65.22-.14a.2.2,0,0,0-.19.09.13.13,0,0,1,0,.05m-5-.4a4.33,4.33,0,0,0,2.16.95v.08a.36.36,0,0,0,.14.05.32.32,0,0,0,.32-.11c.12-.11.09,0,.18-.05l.16-.24c.08,0,.12-.15.15-.17v.47a4.45,4.45,0,0,0,1.62-.46c-.1,0-.22-.15-.25-.16s.05.17.06.22-.26.13-.28.1-.22-.17-.23-.14c0,.23-.12.17-.12.17-.22-.32-.29-.12-.41-.24s-.16-.07-.16-.07-.15.08-.23.11-.08.13-.16.17l-.16.24c-.09,0-.06-.06-.18.05a.32.32,0,0,1-.32.11.36.36,0,0,1-.14-.05v-.08a.57.57,0,0,1,0-.18,1,1,0,0,1,.07-.42c0-.06.15,0,.24,0v-.44s0-.05,0-.06v-.43A2.72,2.72,0,0,1,25,23.16ZM24,21.55a.69.69,0,0,0,0-.13c0,.06-.2,0-.18.11s.09,0,.2,0m-1.52.54a4,4,0,0,0,.94,1.74l1.13-1.13-.14-.18h0c-.1.05,0,.19-.08.23a.45.45,0,0,0-.14.19c0,.07-.22.25-.31.16s0-.52-.15-.53,0,0,0,.2-.08.08-.14.06a1.65,1.65,0,0,1-.23-.18c-.14-.12,0-.2,0-.2s-.11-.1-.15-.09,0,.09-.11.05S23,22.2,23,22.2a.93.93,0,0,1-.33-.07l-.15,0m3.87-5.31a4.38,4.38,0,0,0-2.47,1l.65.65c.12,0,.1.11.22.15s.12,0,.23,0,0,.06.07.11.11,0,.11,0,.08,0,.21,0,.05-.14.12-.22,0-.13,0-.22.13-.19.17-.25.1-.06.15,0-.05.12,0,.17.22,0,.53-.06Zm3,.92A4.41,4.41,0,0,0,27,16.79V18a2.5,2.5,0,0,1,.45.13l.05,0c.14-.27.34-.23.39-.27s0-.09.12-.17.19,0,.21.09a.8.8,0,0,1-.13.57.62.62,0,0,1-.32.23,2.77,2.77,0,0,1,.55.33l.12-.12a.32.32,0,0,1,0-.06l.13-.09.54-.55a0,0,0,0,1,0,0c-.07,0-.24-.07.09-.28l.17-.1m.68.68-.11-.13-.12.12c.06.07.18.2.15.14s0,0,.08-.13m2-6.29c.07-.06.1,0,.18.05s.09-.06.22,0a.26.26,0,0,1,.17.24,1.12,1.12,0,0,0,.09.22c0,.07-.14.15-.24.1a.69.69,0,0,1-.2-.23L32,12.28a.21.21,0,0,1,.05-.19M27.19,11s.06-.1.12-.08a1.49,1.49,0,0,0,.22,0l.38-.14.31-.13.12-.06a1.07,1.07,0,0,1,.85.26l.12.09,0,.12a2.12,2.12,0,0,1-.37.18.76.76,0,0,1-.26,0l-.23,0-.49.13a.88.88,0,0,1-.35,0,.35.35,0,0,1-.14-.06l-.22-.16,0-.09m5.05,5.29c.07.07.27.32.35.41a.09.09,0,0,1,0,.06c-.12-.16-.25-.32-.38-.47"/><path class="cls-2" d="M32.9,33.65c.07,0,1-.17,2.31-.32a19.48,19.48,0,0,0,2.9-.34A3.69,3.69,0,0,0,40,31.83s.07,0,.05,0A5.21,5.21,0,0,1,37.81,34a6.21,6.21,0,0,1-3.66.51c-.41-.09-1-.27-1.61-.44a8,8,0,0,0-1.79-.31s-.05-.08.08-.1a7.15,7.15,0,0,0,1.46-.42,8.51,8.51,0,0,0,2.15-1.78,11.93,11.93,0,0,1,2.07-1.73s0,0,0,.06A6.1,6.1,0,0,0,35.84,31,5.08,5.08,0,0,1,35,32.52,3.47,3.47,0,0,1,32.9,33.6s-.07,0,0,0m9.74-6a5.39,5.39,0,0,1-1.75,3,6.6,6.6,0,0,1-2.73,1.61c-.54.13-1.15.2-1.65.3A11,11,0,0,0,35.1,33s-.05,0,0,0a4.39,4.39,0,0,0,.78-.86,9.82,9.82,0,0,0,1-2.41,13.49,13.49,0,0,1,.57-1.45,11.77,11.77,0,0,1,1.37-2s.08,0,.07,0a5.91,5.91,0,0,0-.33,1c-.2.93-.24,1.9-.36,2.27a4.8,4.8,0,0,1-.78,1.63,5.24,5.24,0,0,1-.93.95c-.08,0,0,0,0,0a8.33,8.33,0,0,0,.73-.48,13.76,13.76,0,0,1,1.22-.89c.58-.35,1.21-.5,2.34-1.16a4.15,4.15,0,0,0,1.79-1.91s.05-.1.06,0M40,22.83a4,4,0,0,0,0,.88,16.58,16.58,0,0,1,.44,2.72,4,4,0,0,1-.73,2.28l0,0S40.57,27.52,41,27s1.29-1.35,1.71-1.82a4,4,0,0,0,1-2.08h0a5.34,5.34,0,0,1-.35,2.71,5.57,5.57,0,0,1-1.6,2.2,18,18,0,0,1-2.25,1.56,8.56,8.56,0,0,0-1.08.74s0,0,0,0a9.5,9.5,0,0,0,.6-1.44,15.2,15.2,0,0,0,.27-2.09,13.08,13.08,0,0,1,.69-3.89ZM39.75,19c0-.05-.08-.11-.09,0A10.42,10.42,0,0,0,40,21.57c.22.88.79,2.75.86,3a5,5,0,0,1,0,1.82s0,.11.06.05a15.06,15.06,0,0,1,.91-1.32,9.21,9.21,0,0,0,1.26-1.75,6.47,6.47,0,0,0,.6-3,5.91,5.91,0,0,0-.46-2.18s-.06,0,0,0a4.82,4.82,0,0,1,0,1.22,4.71,4.71,0,0,1-.52,1.6c-.31.67-.62,1.47-.71,1.74a11.21,11.21,0,0,0-.26,1.33,2.49,2.49,0,0,1-.26.77l0,0a3.14,3.14,0,0,0,.22-1.14,3.92,3.92,0,0,0-.51-2A9.77,9.77,0,0,1,39.75,19m1.61-5.2c0-.06,0,0,0,0a3.15,3.15,0,0,1,.45,1.8c0,1.14-.18,1.2-.21,2.21a17.06,17.06,0,0,0,.13,2.25h-.06a4.25,4.25,0,0,0-.36-1.38,9.24,9.24,0,0,0-2-2.14s-.54-.52-.59-.81c0-.07-.09,0-.09,0a8.3,8.3,0,0,0,.58,1.83A29.86,29.86,0,0,0,41,20.23,4.52,4.52,0,0,1,41.7,22h0a5.83,5.83,0,0,1,.37-1.54,10.71,10.71,0,0,0,.63-1.92,5.69,5.69,0,0,0,0-2.15,6.82,6.82,0,0,0-1.38-2.61M41.16,18a3.24,3.24,0,0,0-.6-.85,8.65,8.65,0,0,0-1-.91c-.43-.35-.91-.65-1.22-.93a3.85,3.85,0,0,1-1.27-2.57,4.66,4.66,0,0,0,.7,1c.41.4,1.4.94,1.81,1.32a3.45,3.45,0,0,1,1,1.47h.08s-.44-1.16-.55-1.59A14.79,14.79,0,0,0,39.72,13a2.32,2.32,0,0,0-1-1.29s0,0,0,0a3.26,3.26,0,0,1,2.36,2.52,16.91,16.91,0,0,1,0,2.75c0,.6.05,1,.05,1Zm-5.74-7.83s.53.18,1.11.41a4.5,4.5,0,0,1,1.74,1.07,5.09,5.09,0,0,1,1.19,2.31,2.43,2.43,0,0,0,.23.57s0,0,0,0a23.86,23.86,0,0,1-2-1.69c-.43-.49-1-1.4-1.36-1.78l-.95-.94M16.18,34.78a5.32,5.32,0,0,0,3.66,1.7,5.12,5.12,0,0,0,2.94-.95,21.79,21.79,0,0,1,1.91-1.23,2.29,2.29,0,0,1,1.36,0,8,8,0,0,0-1.77,1A12.05,12.05,0,0,0,22.22,37l.74.62a10.72,10.72,0,0,1,1.57-1.64,7.48,7.48,0,0,1,2.26-1.47,11.31,11.31,0,0,1,3.79,3.1l.75-.64a13.55,13.55,0,0,0-3.82-2.66s.2-.13,1.1,0a3,3,0,0,1,1.21.66A11.37,11.37,0,0,0,31.67,36a5.79,5.79,0,0,0,2,.42,5,5,0,0,0,3.7-1.75,0,0,0,0,0-.05,0,4.16,4.16,0,0,1-2.53.68A7.13,7.13,0,0,1,32,34.6a6.87,6.87,0,0,0-3.21-.87,5.19,5.19,0,0,0-2.07.27,4.78,4.78,0,0,0-1.8-.29,6.91,6.91,0,0,0-2.94.66,7.65,7.65,0,0,1-3.45,1,4.18,4.18,0,0,1-2.32-.68s-.06.05-.06.05m4.45-1.07c-.07,0-1-.18-2.33-.33a20.91,20.91,0,0,1-3-.32,3.52,3.52,0,0,1-1.9-1.14s-.08,0-.06,0a5.29,5.29,0,0,0,2.28,2.15,6.33,6.33,0,0,0,3.74.47c.41-.09,1-.27,1.61-.44a7.9,7.9,0,0,1,1.79-.31s.05-.08-.08-.1a3.88,3.88,0,0,1-1.46-.42,7.71,7.71,0,0,1-2.2-1.74A11.16,11.16,0,0,0,17,29.84s0,0,0,.07A5.52,5.52,0,0,1,17.63,31a5.21,5.21,0,0,0,.91,1.53,3.61,3.61,0,0,0,2.09,1.09s.07,0,0,.05M10.8,27.78a5.52,5.52,0,0,0,1.78,3,6.7,6.7,0,0,0,2.82,1.6c.55.11,1.14.18,1.65.28a9.37,9.37,0,0,1,1.36.35s.05,0,0,0a4.79,4.79,0,0,1-.78-.87,10.36,10.36,0,0,1-1.06-2.41,12.51,12.51,0,0,0-.5-1.26,13.37,13.37,0,0,0-1.47-2.16s-.08,0-.07,0a5.48,5.48,0,0,1,.32.94c.12.57.29,1.91.41,2.28a5,5,0,0,0,.79,1.66,4.82,4.82,0,0,0,.94.94c.08.05,0,0,0,0a9.06,9.06,0,0,1-.77-.49,6.42,6.42,0,0,0-1-.74c-.58-.35-1.38-.62-2.51-1.29a4.36,4.36,0,0,1-1.85-1.9s0-.1-.06,0m2.6-4.84a3.71,3.71,0,0,1,0,.9,18,18,0,0,0-.41,2.7,4.1,4.1,0,0,0,.76,2.29l0,0s-.87-1.22-1.28-1.76-1.32-1.31-1.71-1.81a4.33,4.33,0,0,1-1-2.05h0a5.51,5.51,0,0,0,.37,2.68,5.58,5.58,0,0,0,1.62,2.2A17.14,17.14,0,0,0,14,29.66a8.56,8.56,0,0,1,1.08.74s0,0,0,0a10.19,10.19,0,0,1-.61-1.44,15.57,15.57,0,0,1-.27-2.1,13.29,13.29,0,0,0-.75-3.9Zm.21-3.87c0-.05.08-.1.09,0a18.13,18.13,0,0,1-.28,2.55c-.2.89-.79,2.75-.85,3a6.54,6.54,0,0,0,0,1.82s0,.1-.07,0-.61-.93-.92-1.27a9.78,9.78,0,0,1-1.28-1.77,7.47,7.47,0,0,1-.61-3.31c.1-1.5.44-1.86.44-1.86s.06,0,0,0a4,4,0,0,0,0,1.19,5.22,5.22,0,0,0,.61,1.76,8.49,8.49,0,0,1,.65,1.6,8.25,8.25,0,0,1,.29,1.28,2.37,2.37,0,0,0,.26.76h0a2.79,2.79,0,0,1-.21-1.16,3.94,3.94,0,0,1,.51-2,11.14,11.14,0,0,0,1.3-2.61M11.9,13.94c0-.06.09,0,.09,0a2.77,2.77,0,0,0-.46,1.71c0,1.15.22,1.35.24,2.36a17.27,17.27,0,0,1-.12,2.22h.06a3.58,3.58,0,0,1,.4-1.49,10.24,10.24,0,0,1,2-2.14,2.34,2.34,0,0,0,.54-.78c0-.07.08,0,.08,0a6.32,6.32,0,0,1-.54,1.75,26.61,26.61,0,0,1-1.72,2.6,5.49,5.49,0,0,0-.79,1.95h-.05a7.2,7.2,0,0,0-.4-1.59,9.35,9.35,0,0,1-.64-1.86,6.09,6.09,0,0,1,0-2.27,5.93,5.93,0,0,1,1.3-2.51m.27,4.11a3.24,3.24,0,0,1,.6-.85,8.67,8.67,0,0,1,1-.91c.43-.34.92-.69,1.22-1a3.74,3.74,0,0,0,1.18-2.56,3.5,3.5,0,0,1-.63,1c-.41.39-1.41,1-1.82,1.35a3.56,3.56,0,0,0-1,1.49h0s.42-1.18.53-1.61a13.27,13.27,0,0,1,.46-1.85,2.17,2.17,0,0,1,1-1.26s0-.05,0-.05a3.27,3.27,0,0,0-2.4,2.52,16.09,16.09,0,0,0,0,2.78c-.05.59-.05,1-.05,1h.06l0,0m5.58-7.79-1,.36A4.61,4.61,0,0,0,15,11.67,5.21,5.21,0,0,0,13.81,14c-.1.36-.2.61-.2.61a23.55,23.55,0,0,0,2-1.69c.43-.49,1-1.44,1.34-1.82s.87-.89.87-.89"/></svg>